<svg xmlns="http://www.w3.org/2000/svg" viewBox="0 0 16 16">
    <path style="line-height:normal;text-indent:0;text-align:start;text-decoration-line:none;text-decoration-style:solid;text-decoration-color:#000;text-transform:none;block-progression:tb;isolation:auto;mix-blend-mode:normal" d="M 2.5 2 C 1.6774686 2 1 2.6774686 1 3.5 L 1 11.5 C 1 12.322531 1.6774686 13 2.5 13 L 4 13 L 4 15.433594 L 7.6523438 13 L 13.5 13 C 14.322531 13 15 12.322531 15 11.5 L 15 3.5 C 15 2.6774686 14.322531 2 13.5 2 L 2.5 2 z M 2.5 3 L 13.5 3 C 13.781469 3 14 3.2185314 14 3.5 L 14 11.5 C 14 11.781469 13.781469 12 13.5 12 L 7.3476562 12 L 5 13.566406 L 5 12 L 2.5 12 C 2.2185314 12 2 11.781469 2 11.5 L 2 3.5 C 2 3.2185314 2.2185314 3 2.5 3 z M 3.5 4 A 0.50005 0.50005 0 0 0 3 4.5 L 3 9 L 4 9 L 4 8 L 6 8 L 6 9 L 7 9 L 7 5.7851562 A 0.50005 0.50005 0 0 0 6.8261719 5.40625 L 5.3261719 4.1210938 A 0.50005 0.50005 0 0 0 5 4 L 3.5 4 z M 4 5 L 4.8144531 5 L 6 6.015625 L 6 7 L 4 7 L 4 5 z M 10 6 L 10 7 L 8 7 L 8 8 L 10.876953 8 C 10.771362 8.1893663 10.648823 8.3900585 10.496094 8.5957031 C 10.425197 8.6911632 10.337372 8.7789401 10.257812 8.8710938 C 9.9006497 8.5411018 9.6347656 8.2519531 9.6347656 8.2519531 L 8.8652344 8.890625 C 8.8652344 8.890625 9.1439709 9.1935003 9.515625 9.5449219 C 9.0977102 9.8180656 8.6007466 10 8 10 L 8 11 C 8.9346834 11 9.6973246 10.662071 10.300781 10.205078 C 10.878369 10.623143 11.580721 11 12.375 11 L 12.375 10 C 11.973556 10 11.484731 9.7828293 11.035156 9.4921875 C 11.12199 9.3910629 11.223691 9.292575 11.298828 9.1914062 C 11.620304 8.7585523 11.849322 8.3274768 12 8 L 13 8 L 13 7 L 11 7 L 11 6 L 10 6 z"/>
</svg>
